<svg width="70" height="50" viewBox="0 0 70 50" fill="none" xmlns="http://www.w3.org/2000/svg">
<path d="M67.4056 0H2.59461C1.16173 0 0 1.16155 0 2.59443V46.8177C0 48.2504 1.16173 49.4123 2.59461 49.4123H67.4056C68.8383 49.4123 70 48.2504 70 46.8177V2.59443C70 1.16155 68.8383 0 67.4056 0ZM5.18904 7.50718L22.8147 19.5333L5.18904 39.8642V7.50718ZM35.0006 21.5654L11.0001 5.18886H58.9997L35.0006 21.5654ZM27.131 22.4778L33.5376 26.8498C33.9798 27.1499 34.4905 27.3006 35.0008 27.3006C35.5117 27.3006 36.022 27.1499 36.4627 26.8498L42.8705 22.4778L61.724 44.2231H8.2791L27.131 22.4778ZM47.1864 19.5333L64.811 7.50718V39.8614L47.1864 19.5333Z" fill="#C4C4C4"/>
</svg>
