<svg width="40" height="70" viewBox="0 0 40 70" fill="none" xmlns="http://www.w3.org/2000/svg">
<path d="M35.3492 0H4.6508C2.09325 0 0 2.126 0 4.728V65.27C0 67.872 2.09325 70 4.6508 70H35.3492C37.9067 70 40 67.876 40 65.272V4.728C40 2.126 37.9067 0 35.3492 0ZM15.0895 3.408H24.9105C25.2213 3.408 25.4731 3.664 25.4731 3.982C25.4731 4.298 25.2213 4.554 24.9105 4.554H15.0895C14.7787 4.554 14.5269 4.298 14.5269 3.982C14.5269 3.664 14.7787 3.408 15.0895 3.408ZM20 67.636C18.7153 67.636 17.6746 66.578 17.6746 65.27C17.6746 63.962 18.7153 62.906 20 62.906C21.2847 62.906 22.3254 63.962 22.3254 65.27C22.3254 66.578 21.2847 67.636 20 67.636ZM36.7637 61.25H3.23628V7.498H36.7637V61.25Z" fill="#C4C4C4"/>
</svg>
