<svg width="70" height="62" viewBox="0 0 70 62" fill="none" xmlns="http://www.w3.org/2000/svg">
<path d="M48.4416 0.344238C42.7514 0.344238 37.3071 2.60869 33.2769 6.60137C31.9619 6.253 30.6197 6.07539 29.274 6.07539C24.506 6.07539 20.0317 8.21347 17.0363 11.8612C16.6299 11.827 16.2269 11.81 15.8307 11.81C7.10076 11.81 0 18.9141 0 27.6475C0 35.8173 6.12393 42.5936 14.2493 43.3962L42.3757 43.403C42.4133 43.403 42.4338 43.4235 42.4611 43.4235H46.6792H46.6928H47.5331L47.5399 43.4167L49.7121 43.4235L49.7873 43.4167C61.1198 42.7097 70 33.2591 70 21.9163C70.0102 10.0237 60.3376 0.344238 48.4416 0.344238ZM49.5618 38.618H47.5706C47.5604 38.618 47.5467 38.618 47.5399 38.618H46.6997H46.686H42.4645C42.4611 38.618 42.4611 38.618 42.4611 38.618H14.6148C9.01 38.0032 4.79532 33.3069 4.79532 27.6475C4.79532 21.5611 9.74433 16.6087 15.8307 16.6087C16.4147 16.6087 17.0295 16.6668 17.716 16.7863L19.2462 17.0493L20.1137 15.7651C22.9007 11.6187 28.3108 9.78117 33.1471 11.5914L34.7046 12.1754L35.8009 10.9219C38.9978 7.25031 43.6018 5.14638 48.4416 5.14638C57.6872 5.14638 65.2047 12.6707 65.2047 21.9163C65.2047 30.7112 58.343 38.0305 49.5618 38.618Z" fill="#030104"/>
<path d="M12.9072 57.9565C12.9072 60.0058 14.3895 61.6589 16.2168 61.6589C18.0441 61.6589 19.5298 60.0058 19.5298 57.9565C19.5298 55.9073 16.2168 52.6079 16.2168 52.6079C16.2168 52.6079 12.9072 55.9073 12.9072 57.9565Z" fill="#030104"/>
<path d="M45.668 49.9298C45.668 51.4121 46.5799 52.6041 47.7036 52.6041C48.8239 52.6041 49.7426 51.4053 49.7426 49.9298C49.7426 48.4543 47.7036 46.0669 47.7036 46.0669C47.7036 46.0669 45.668 48.4577 45.668 49.9298Z" fill="#030104"/>
<path d="M40.1452 51.8052C40.1247 51.59 40.0974 51.3885 40.0735 51.1938C40.0462 51.0025 40.0189 50.8283 39.9949 50.6712C39.9608 50.4902 39.9266 50.3536 39.9027 50.2716C39.7012 49.6193 39.1479 49.3255 38.4717 49.5475C38.3282 49.5919 38.0994 49.6808 37.7886 49.8276C37.4982 49.9608 37.1533 50.1282 36.7571 50.3229C36.3609 50.5175 35.934 50.7327 35.4729 50.965L34.8308 51.286L35.7051 46.6102L35.3328 46.5044C34.9435 46.3951 34.5404 46.3029 34.1238 46.2345C33.6968 46.1628 33.3894 46.1287 33.1913 46.1287C32.4741 46.1287 32.0437 46.559 32.0437 47.2763C32.0437 47.4846 32.0847 47.8876 32.1565 48.5092C32.2282 49.1138 32.3306 49.7969 32.4502 50.5619L32.5561 51.2689L28.4199 49.0011L28.2013 49.3119C27.9657 49.6466 27.7471 50.0052 27.5524 50.3809C27.3509 50.7669 27.2211 51.0504 27.1528 51.2963C27.1357 51.3714 27.1255 51.4363 27.1186 51.4909C27.1084 51.5593 27.1016 51.6276 27.1016 51.7027C27.1016 52.1979 27.4055 52.5532 27.894 52.6659C28.0203 52.7103 28.2526 52.7683 28.5907 52.8401C28.9083 52.9118 29.2875 52.9801 29.7281 53.0552L31.1489 53.2943C31.3811 53.3353 31.6236 53.3729 31.8627 53.4104L28.3824 56.6688L28.6385 56.9796C28.8981 57.2972 29.1782 57.6046 29.4753 57.8984C29.7861 58.2126 30.0252 58.4175 30.1242 58.4688C30.3907 58.7386 30.6639 58.7966 30.8449 58.7966C31.0977 58.7966 31.4597 58.7044 31.7124 58.3048C31.7978 58.2023 31.9379 57.994 32.1189 57.6798C32.2794 57.3929 32.4673 57.0513 32.6756 56.6551C32.8839 56.2589 33.106 55.8286 33.345 55.3607L33.6729 54.7288L35.7256 59.087L36.1081 58.9093C36.2892 58.8308 36.4668 58.7386 36.6615 58.6429C36.8425 58.5541 37.0201 58.4688 37.1874 58.3902C37.3719 58.3082 37.5358 58.2228 37.6758 58.1477C37.8159 58.0726 37.9218 58.0111 38.0481 57.9291C38.417 57.6081 38.4956 57.2733 38.4956 57.0445C38.4956 56.7952 38.4238 56.5629 38.2565 56.3273C38.1745 56.2316 38.0174 56.0608 37.7886 55.8218L37.0098 54.9918C36.7059 54.6707 36.3711 54.3224 36.0023 53.9433C35.8349 53.7759 35.6676 53.6051 35.5002 53.4378L39.8242 52.8879L40.217 52.8162L40.1896 52.4165C40.1794 52.2082 40.1657 52.0101 40.1452 51.8052Z" fill="#030104"/>
</svg>
