<svg width="70" height="70" viewBox="0 0 70 70" fill="none" xmlns="http://www.w3.org/2000/svg">
<path d="M34.9961 58.4304C33.6769 58.4304 32.6074 59.4999 32.6074 60.8191V67.6106C32.6074 68.9298 33.6769 69.9993 34.9961 69.9993C36.3156 69.9993 37.3848 68.9298 37.3848 67.6106V60.8191C37.3848 59.4996 36.3153 58.4304 34.9961 58.4304Z" fill="black"/>
<path d="M34.9961 11.5705C36.3156 11.5705 37.3848 10.501 37.3848 9.18182V2.38966C37.3848 1.07047 36.3156 0.000976562 34.9961 0.000976562C33.6769 0.000976562 32.6074 1.07047 32.6074 2.38966V9.18182C32.6074 10.501 33.6769 11.5705 34.9961 11.5705Z" fill="black"/>
<path d="M15.0545 51.5667L10.2504 56.3683C9.31724 57.3008 9.31692 58.8134 10.2495 59.7462C10.7161 60.2128 11.3276 60.4463 11.9391 60.4463C12.5502 60.4463 13.1611 60.2131 13.6277 59.7472L18.4318 54.9456C19.365 54.0131 19.3653 52.5005 18.4328 51.5677C17.4996 50.6345 15.9874 50.6345 15.0545 51.5667Z" fill="black"/>
<path d="M53.2542 19.1308C53.8654 19.1308 54.4766 18.8977 54.9432 18.4314L59.7467 13.6298C60.6795 12.6969 60.6798 11.1847 59.7473 10.2516C58.8144 9.31838 57.3022 9.31806 56.3691 10.2512L51.5656 15.0528C50.6327 15.9854 50.6324 17.4979 51.5649 18.4307C52.0312 18.8977 52.6427 19.1308 53.2542 19.1308Z" fill="black"/>
<path d="M11.5689 35.0007C11.5689 33.6816 10.4994 32.6121 9.1802 32.6121H2.38869C1.06949 32.6121 0 33.6816 0 35.0007C0 36.3199 1.06949 37.3894 2.38869 37.3894H9.1802C10.4994 37.3894 11.5689 36.3199 11.5689 35.0007Z" fill="black"/>
<path d="M67.6111 32.6121H60.8164C59.4969 32.6121 58.4277 33.6816 58.4277 35.0007C58.4277 36.3199 59.4969 37.3894 60.8164 37.3894H67.6111C68.9306 37.3894 69.9998 36.3199 69.9998 35.0007C69.9998 33.6819 68.9306 32.6121 67.6111 32.6121Z" fill="black"/>
<path d="M15.054 18.4312C15.5202 18.8975 16.1317 19.1306 16.7429 19.1306C17.3541 19.1306 17.9656 18.8975 18.4319 18.4312C19.3647 17.4984 19.3647 15.9858 18.4319 15.053L13.6303 10.2514C12.6974 9.31854 11.1849 9.31854 10.2524 10.2514C9.31952 11.1843 9.31952 12.6968 10.2524 13.6293L15.054 18.4312Z" fill="black"/>
<path d="M54.9463 51.5672C54.0135 50.6344 52.5009 50.6341 51.5681 51.5669C50.6349 52.4998 50.6349 54.0123 51.5678 54.9448L56.3687 59.7464C56.8353 60.213 57.4465 60.4461 58.058 60.4461C58.6692 60.4461 59.2807 60.213 59.747 59.7467C60.6801 58.8139 60.6801 57.3014 59.7473 56.3688L54.9463 51.5672Z" fill="black"/>
<path d="M34.9985 16.408C24.7472 16.408 16.4072 24.7486 16.4072 35.0005C16.4072 45.2522 24.7472 53.5925 34.9985 53.5925C45.2508 53.5925 53.5914 45.2522 53.5914 35.0005C53.5914 24.7486 45.2505 16.408 34.9985 16.408ZM34.9985 48.8151C27.3815 48.8151 21.1846 42.6179 21.1846 35.0005C21.1846 27.3829 27.3815 21.1853 34.9985 21.1853C42.6165 21.1853 48.8141 27.3829 48.8141 35.0005C48.8141 42.6179 42.6165 48.8151 34.9985 48.8151Z" fill="black"/>
</svg>
