<svg width="70" height="70" viewBox="0 0 70 70" fill="none" xmlns="http://www.w3.org/2000/svg">
<path d="M59.7599 59.7585C73.4136 46.1062 73.4123 23.8922 59.7613 10.2419C46.107 -3.41373 23.8917 -3.41373 10.2401 10.2386C-3.41423 23.8909 -3.41291 46.1068 10.2414 59.7618C23.8917 73.4128 46.107 73.4128 59.7599 59.7585ZM14.0595 14.0581C25.6057 2.5125 44.3929 2.51118 55.9418 14.0594C67.488 25.6056 67.4867 44.3948 55.9405 55.9403C44.3943 67.4865 25.6064 67.4878 14.0595 55.9416C2.51068 44.3941 2.512 25.6043 14.0595 14.0581ZM38.8462 27.5031C38.8462 24.3364 41.4222 21.7604 44.5903 21.7604C47.7563 21.7604 50.3324 24.3357 50.3324 27.5031C50.3324 28.4146 49.5938 29.1531 48.6823 29.1531C47.7709 29.1531 47.0323 28.4146 47.0323 27.5031C47.0323 26.156 45.9367 25.0604 44.5903 25.0604C43.2425 25.0604 42.1463 26.156 42.1463 27.5031C42.1463 28.4146 41.4077 29.1531 40.4962 29.1531C39.5848 29.1531 38.8462 28.4139 38.8462 27.5031ZM20.5488 27.4853C20.5488 24.3192 23.1254 21.7425 26.2928 21.7425C29.4589 21.7425 32.0356 24.3186 32.0356 27.4853C32.0356 28.3968 31.297 29.1353 30.3855 29.1353C29.4741 29.1353 28.7355 28.3968 28.7355 27.4853C28.7355 26.1382 27.6399 25.0426 26.2928 25.0426C24.9451 25.0426 23.8488 26.1382 23.8488 27.4853C23.8488 28.3968 23.1103 29.1353 22.1988 29.1353C21.2873 29.1353 20.5488 28.3961 20.5488 27.4853ZM19.8168 42.2365C19.397 41.2274 19.8755 40.0684 20.886 39.6486C21.1342 39.5463 21.3916 39.4975 21.645 39.4975C22.4212 39.4975 23.1578 39.9562 23.4739 40.7185C25.3068 45.1313 29.8463 47.9812 35.0393 47.9812C40.1147 47.9812 44.6279 45.1293 46.5366 40.7139C46.9709 39.71 48.1365 39.2473 49.1397 39.6823C50.1429 40.1172 50.6049 41.2821 50.1707 42.2854C47.6342 48.1509 41.6942 51.9406 35.0386 51.9406C28.2405 51.9406 22.2654 48.1324 19.8168 42.2365Z" fill="black"/>
</svg>
