<svg width="70" height="70" viewBox="0 0 70 70" fill="none" xmlns="http://www.w3.org/2000/svg">
<path d="M69.4101 29.8815L60.4917 23.1025L67.4869 16.9163C67.9756 16.4842 68.1276 15.7851 67.8624 15.1892C67.5973 14.5934 66.9785 14.2387 66.3284 14.3116L56.9738 15.3735L61.0906 4.95002C61.3339 4.33411 61.1427 3.63132 60.6211 3.22357C60.0992 2.81597 59.3715 2.79991 58.8322 3.18472L48.7727 10.3666L46.6281 2.02096C46.4689 1.40154 45.9333 0.952029 45.2956 0.902781C44.6598 0.854297 44.0597 1.2154 43.8073 1.80302L40.1726 10.2641L30.0176 5.03597C29.3879 4.71173 28.6171 4.87401 28.1719 5.42461C27.7263 5.97506 27.7282 6.76257 28.1766 7.31088L34.6959 15.2844L27.8098 18.5524C27.2242 18.8303 26.8845 19.454 26.9688 20.0968C27.0531 20.7396 27.542 21.2548 28.1795 21.3724L35.2714 22.6807C35.2714 22.6807 36.9167 22.9372 37.7658 24.3083C37.7726 24.3193 37.7836 24.327 37.7926 24.336L39.2427 22.6646C39.594 22.2596 39.7015 21.6974 39.5242 21.1913C39.347 20.6852 38.9121 20.3128 38.3849 20.2155L33.2669 19.2712L37.7022 17.1664C38.1173 16.9694 38.4187 16.5924 38.5197 16.1441C38.6205 15.6957 38.5094 15.226 38.2184 14.8702L35.0413 10.9843L40.2295 13.6554C40.5978 13.845 41.0289 13.8733 41.4188 13.7331C41.8089 13.593 42.1232 13.2972 42.2867 12.9163L44.8241 7.00989L46.4201 13.221C46.5427 13.6983 46.8927 14.0844 47.3556 14.2532C47.8186 14.4221 48.335 14.3516 48.736 14.0654L56.4524 8.55616L53.2794 16.5902C53.0867 17.0783 53.1641 17.6318 53.4831 18.0483C53.8023 18.4647 54.3176 18.6837 54.8379 18.6242L61.9572 17.8161L57.1469 22.0701C56.8115 22.3667 56.6267 22.7978 56.6434 23.245C56.6599 23.6924 56.8762 24.1086 57.2324 24.3796L61.878 27.9106L57.0024 26.7175C56.5093 26.5971 55.9879 26.7349 55.6191 27.0844C55.2505 27.4337 55.0844 27.9466 55.1783 28.4458L56.2107 33.9295L52.0586 28.8069C51.7441 28.4189 51.2559 28.2125 50.759 28.26C50.2616 28.3061 49.8202 28.5978 49.5828 29.0372L46.3965 34.9304L45.0517 26.939C44.9809 26.5179 44.7334 26.1475 44.3718 25.9207C44.0155 25.6974 43.5753 25.6308 43.1588 25.7523L39.2737 26.887C39.3987 27.349 39.4669 27.8296 39.473 28.3204L39.4933 29.9368L42.3829 29.0929L44.1699 39.7127C44.2758 40.3419 44.7695 40.8345 45.399 40.939C46.0288 41.0437 46.6549 40.7368 46.9583 40.1753L51.1465 32.4289L57.6123 40.4056C58.0432 40.9371 58.7802 41.1084 59.4013 40.8207C60.0223 40.5332 60.3687 39.8605 60.2421 39.188L58.5447 30.1721L68.1499 32.5227C68.8371 32.6905 69.5495 32.3534 69.8542 31.7142C70.1595 31.0752 69.9738 30.3099 69.4101 29.8815Z" fill="black"/>
<path d="M17.6945 36.1966C20.727 36.1966 23.1854 33.7383 23.1854 30.7057C23.1854 27.6732 20.727 25.2148 17.6945 25.2148C14.662 25.2148 12.2036 27.6732 12.2036 30.7057C12.2036 33.7383 14.662 36.1966 17.6945 36.1966Z" fill="black"/>
<path d="M48.9891 63.0878L38.3126 57.6607C37.8611 57.431 37.3588 57.3114 36.8429 57.3155L21.0471 57.46L33.045 54.7858L35.1177 52.7958L35.6295 54.2372L36.8153 54.2263C37.8553 54.2219 38.8367 54.4612 39.7125 54.9068L43.2533 56.7066L39.4303 45.9381C39.0658 44.9115 38.2011 44.1429 37.1387 43.9016C36.0767 43.6604 34.9645 43.9796 34.1921 44.7478L29.4935 49.422C28.2889 44.5241 28.6322 45.9199 27.7471 42.3209L34.5607 40.4363C35.7206 40.1154 36.5187 39.0529 36.5036 37.8494L36.384 28.3594C36.3656 26.8968 35.165 25.7254 33.7014 25.7436C32.2388 25.7621 31.0671 26.9626 31.0856 28.4263L31.1794 35.8738L25.5981 37.4176C24.752 36.8243 23.6644 36.585 22.5822 36.8511C15.5644 38.577 16.0045 38.4529 15.653 38.5947L18.3356 39.942L8.48138 37.8388L5.11398 29.3155C4.575 27.9517 3.02689 27.2914 1.67654 27.8249C0.316853 28.3619 -0.351824 29.9008 0.185932 31.2623L4.07518 41.1068C4.39942 41.9275 5.11368 42.5381 5.98623 42.7244L16.868 45.0467L13.9805 45.1054C14.7651 48.2959 17.1327 57.9228 18.018 61.5227L18.0227 61.5165C18.4046 62.8466 19.6274 63.8181 21.0755 63.8181C21.0853 63.8181 21.0951 63.8181 21.1049 63.818L36.1238 63.6803L46.1076 68.7554C47.6764 69.5525 49.5885 68.9237 50.3824 67.362C51.1782 65.7972 50.5543 63.8834 48.9891 63.0878Z" fill="black"/>
</svg>
