<svg width="107" height="83" viewBox="0 0 107 83" fill="none" xmlns="http://www.w3.org/2000/svg">
<path d="M0.290627 38.5908L8.5114 20.8456C9.02402 19.7403 10.1319 19.0326 11.3506 19.0326H37.2038V3.56383C37.2038 1.83753 38.604 0.437988 40.3321 0.437988H102.908C104.636 0.437988 106.036 1.83753 106.036 3.56383V56.1701C106.036 57.8964 104.636 59.2959 102.908 59.2959H96.7801C97.304 60.4421 97.6998 61.6578 97.9476 62.9269H102.908C104.636 62.9269 106.036 64.3265 106.036 66.0528C106.036 67.7791 104.636 69.1786 102.908 69.1786H97.9472C96.4831 76.6873 89.8528 82.3734 81.9152 82.3734C73.9789 82.3734 67.349 76.6869 65.8849 69.1786H39.7757C38.3116 76.6873 31.6817 82.3734 23.7446 82.3734C15.8087 82.3734 9.17918 76.6869 7.71514 69.1786H3.12862C1.40055 69.1786 0.000320435 67.7791 0.000320435 66.0528V39.904C0.00115204 39.4502 0.0995941 39.0021 0.290627 38.5908ZM39.7765 62.9265H65.8854C66.1327 61.6574 66.529 60.4417 67.0528 59.2955H40.3317C39.5025 59.2955 38.7504 58.9709 38.1907 58.4445C38.9265 59.8328 39.4666 61.3386 39.7765 62.9265ZM99.7795 6.68967H43.4604V53.0443H72.064C74.8048 50.9666 78.218 49.7309 81.9156 49.7309C85.6133 49.7309 89.0273 50.9666 91.7681 53.0443H99.7795V6.68967ZM81.9156 76.1213C87.4732 76.1213 91.9946 71.6043 91.9946 66.0524C91.9946 60.4996 87.4732 55.9821 81.9156 55.9821C76.3589 55.9821 71.8383 60.4996 71.8383 66.0524C71.8383 71.6043 76.3589 76.1213 81.9156 76.1213ZM23.7454 76.1213C29.3025 76.1213 33.8236 71.6043 33.8236 66.0524C33.8236 60.4996 29.3025 55.9821 23.7454 55.9821C18.1891 55.9821 13.6689 60.4996 13.6689 66.0524C13.6689 71.6043 18.1891 76.1213 23.7454 76.1213ZM6.25777 62.9265H7.71597C9.18002 55.417 15.8087 49.7304 23.7454 49.7304C29.391 49.7304 34.3758 52.6079 37.311 56.9716C37.2434 56.7152 37.2034 56.4477 37.2034 56.1701V25.2843H13.3494L6.25777 40.5921V62.9265Z" fill="white"/>
<path d="M17.9986 28.1499H31.1529C32.881 28.1499 34.2812 29.5494 34.2812 31.2757V39.9656C34.2812 41.6919 32.881 43.0914 31.1529 43.0914H13.873C13.8684 43.0914 13.8668 43.0914 13.8647 43.0914C12.1366 43.0914 10.7364 41.6919 10.7364 39.9656C10.7364 39.4059 10.8836 38.8807 11.1414 38.4264L15.1719 29.9362C15.6899 28.8451 16.7903 28.1499 17.9986 28.1499ZM28.0246 36.8393V34.4012H19.977L18.8199 36.8393H28.0246Z" fill="white"/>
</svg>
