<svg width="46" height="36" viewBox="0 0 46 36" fill="none" xmlns="http://www.w3.org/2000/svg">
<path d="M11.7788 26.58C12.1481 27.2193 12.248 27.8521 12.0783 28.4784C11.9113 29.1029 11.4958 29.6404 10.8319 30.0908C10.1058 30.5834 9.3686 30.7275 8.62034 30.5232C7.87291 30.3145 7.2098 29.7836 6.63101 28.9304L6.39615 28.5842C6.02671 28.0396 5.7972 27.4948 5.70762 26.9496C5.61805 26.4045 5.67613 25.9013 5.88188 25.4398C6.08846 24.974 6.42774 24.581 6.89972 24.2608C7.55324 23.8175 8.19843 23.6354 8.8353 23.7146C9.47216 23.7938 10.0363 24.1286 10.5278 24.7192L9.36085 25.5108C9.08427 25.1645 8.80239 24.9695 8.51522 24.9257C8.22887 24.8776 7.90676 24.975 7.54889 25.2178C7.15989 25.4816 6.96314 25.8196 6.95865 26.2316C6.95498 26.6393 7.14935 27.1379 7.54175 27.7275L7.83203 28.1554C8.24721 28.7674 8.64275 29.1523 9.01863 29.3101C9.3971 29.4661 9.78603 29.4086 10.1854 29.1377C10.5459 28.8932 10.7589 28.6294 10.8244 28.3464C10.8907 28.059 10.8199 27.7341 10.6118 27.3716L11.7788 26.58ZM14.1026 24.3787L13.4296 24.8353L14.9997 27.1498L13.8328 27.9414L9.99056 22.2777L11.1575 21.486L12.696 23.7539L13.2289 23.3923L13.0753 20.185L14.499 19.2192L14.5706 23.0842L18.5241 24.759L17.1314 25.7037L14.1026 24.3787ZM18.529 16.4853L19.6999 15.691L23.5421 21.3548L22.3712 22.1491L19.8194 18.3875L20.1034 23.6876L18.9364 24.4792L15.0942 18.8155L16.2612 18.0238L18.8182 21.7932L18.529 16.4853ZM30.8352 18.4408L29.7577 19.1717L28.813 17.7791L25.3976 20.0961L26.3397 21.4848L25.2349 22.2342L23.5947 19.9503L24.0225 19.66C24.1232 19.3115 24.1099 18.9096 23.9828 18.4543C23.8566 17.9947 23.629 17.475 23.3001 16.8953L21.7694 14.2872L25.4804 11.7697L28.6866 16.496L29.3479 16.0474L30.8352 18.4408ZM25.3607 18.7522L27.5196 17.2876L24.9546 13.5066L23.5192 14.4803L24.4327 16.0362C25.0322 17.0874 25.3415 17.9927 25.3607 18.7522ZM30.8761 12.9999L30.2031 13.4564L31.7732 15.771L30.6063 16.5626L26.7641 10.8988L27.931 10.1072L29.4695 12.375L30.0024 12.0135L29.8488 8.80621L31.2725 7.84038L31.3441 11.7054L35.2976 13.3801L33.9049 14.3249L30.8761 12.9999ZM38.1547 9.73788L36.1086 11.1259L36.5112 12.5568L35.2703 13.3986L33.5365 6.30456L34.6179 5.57095L40.5801 9.79654L39.3392 10.6383L38.1547 9.73788ZM35.7824 9.96692L37.1983 9.00637L35.0483 7.36926L35.7824 9.96692Z" fill="#FF0A0A"/>
<rect x="0.326172" y="26.9307" width="47.1141" height="10.4698" rx="1.74497" transform="rotate(-34.1522 0.326172 26.9307)" fill="#FFDFDF" fill-opacity="0.5"/>
</svg>
