<svg width="105" height="73" viewBox="0 0 105 73" fill="none" xmlns="http://www.w3.org/2000/svg">
<path d="M101.539 44.5538L77.4517 44.5767C77.6552 42.3655 77.5301 39.6474 77.4851 35.3559C77.3933 27.203 74.7914 24.8086 68.8355 16.7065C64.8676 11.3094 65.2612 7.65569 61.4985 5.84521C59.482 4.93589 57.5039 4.62841 56.0579 4.53683C55.7326 4.51557 55.4341 4.50412 55.1689 4.50085C54.5351 4.49594 54.1198 4.52374 53.9647 4.5401C53.6678 4.5401 53.3359 4.54501 53.0173 4.54991V4.54664L51.6313 4.55972L49.9918 4.57608L49.1078 4.58426L49.1045 4.5679C48.8393 4.5679 48.5825 4.5679 48.3256 4.5679C36.2302 4.5679 33.9735 4.0102 24.5884 3.50157C14.3843 2.94877 7.18913 0 7.18913 0C7.18913 0 -3.20507 20.4304 1.00298 21.4772C5.2127 22.5239 9.67927 25.8504 9.67927 25.8504C20.0851 35.0059 40.9352 39.2254 37.2776 39.2287C33.6199 39.232 32.324 39.7111 31.6585 43.2912C30.993 46.8697 39.9212 47.1902 39.9212 47.1902C39.9212 47.1902 39.2007 48.4266 39.8545 51.6551C40.0496 52.6135 41.2722 52.952 42.895 52.952C46.7378 52.952 52.8239 51.0647 52.8239 51.0647C52.8239 51.0647 50.0652 55.1403 54.4434 56.6498C55.0588 56.8625 55.6059 56.954 56.0996 56.954C58.4696 56.954 59.5537 54.8835 60.3393 54.069C60.5294 53.8695 60.7096 53.7223 60.8764 53.7223C60.903 53.7223 60.9264 53.7256 60.9497 53.7305C61.1416 53.7714 61.3851 53.8483 61.6403 53.9349C62.0556 54.0756 62.5159 54.2539 62.9429 54.4321C63.6784 54.7347 64.2972 55.016 64.2972 55.016C66.3186 55.9417 67.8648 56.2999 69.0406 56.2999C73.0669 56.2999 72.8133 52.113 72.8133 52.113C72.8133 52.113 73.262 50.0621 71.6258 47.1346C71.3973 46.7257 71.1238 46.2972 70.8052 45.8573C70.5067 45.4419 70.1748 45.0167 69.7828 44.5816C68.4652 43.1031 66.6039 41.5102 63.9553 39.909C53.7295 33.722 52.7221 30.6555 52.7221 30.6555C52.9339 27.8555 54.7503 27.1408 56.5549 27.1408C57.1387 27.1408 57.7174 27.2177 58.2428 27.3191C58.5814 27.4843 58.93 27.6789 59.2835 27.885C59.6104 28.0763 59.9407 28.2775 60.2743 28.4934C63.2965 30.4609 66.3537 33.269 66.6155 33.5127L66.7423 34.2012C67.1676 35.3967 67.336 36.5579 67.3644 37.549L67.9198 40.5502C69.7094 41.9354 71.0254 43.2978 71.9928 44.58C72.3197 45.0167 72.6149 45.4419 72.8667 45.8557C73.1336 46.294 73.3738 46.7225 73.5656 47.133L76.9964 47.1297L101.534 47.1068C101.989 47.1068 102.363 47.4879 102.363 47.9573L102.376 59.3598L62.9512 59.3958L62.9479 56.2868C62.5259 56.1069 62.0689 55.9155 61.6453 55.7536C61.5202 55.7078 61.3917 55.6538 61.2767 55.6129C61.2566 55.6407 61.2366 55.6653 61.2183 55.6898C60.9881 55.9809 60.6962 56.3391 60.3443 56.7054L60.3577 69.5391C60.3593 71.415 61.9021 72.9425 63.7951 72.9425H63.7968L101.566 72.9082C103.459 72.9049 105.002 71.3774 105 69.4982L104.975 47.9556C104.973 46.0814 103.436 44.5538 101.539 44.5538ZM102.39 66.3319L102.393 69.4982C102.393 69.9659 102.021 70.3503 101.564 70.3503L63.7951 70.3846C63.3381 70.3846 62.9645 70.0036 62.9645 69.5325L62.9612 66.3679L102.39 66.3319Z" fill="white"/>
</svg>
