<svg width="111" height="82" viewBox="0 0 111 82" fill="none" xmlns="http://www.w3.org/2000/svg">
<path d="M98.6065 0.603027H12.4082V58.0824H98.6065V0.603027ZM89.8666 49.2444H21.1456V9.43602H89.8666V49.2444Z" fill="white"/>
<path d="M67.3623 77.7627H43.8575H0V81.5397H111V77.7627H67.3623Z" fill="white"/>
<path d="M98.5893 60.7505H56.7277H54.2747H12.4083L0.666992 76.6129H110.336L98.5893 60.7505ZM86.1983 63.6632H90.9388V66.0563H86.1983V63.6632ZM93.8661 67.4826V69.8757H89.1725V67.4826H93.8661ZM87.9942 67.4826V69.8757H83.2562V67.4826H87.9942ZM79.7163 63.6632H84.4543V66.0563H79.7163V63.6632ZM81.5146 67.4826V69.8757H76.7766V67.4826H81.5146ZM73.0909 63.6632H77.829V66.0563H73.0909V63.6632ZM74.8893 67.4826V69.8757H70.1513V67.4826H74.8893ZM66.3075 63.6632H71.0455V66.0563H66.3075V63.6632ZM59.6822 63.6632H64.4202V66.0563H59.6822V63.6632ZM61.4781 67.4826V69.8757H56.7401V67.4826H61.4781ZM53.2002 63.6632H57.9357V66.0563H53.2002V63.6632ZM54.9961 67.4826V69.8757H50.2581V67.4826H54.9961ZM46.5749 63.6632H51.3129V66.0563H46.5749V63.6632ZM48.3732 67.4826V69.8757H43.6352V67.4826H48.3732ZM39.8063 63.6632H44.5443V66.0563H39.8063V63.6632ZM41.6046 67.4826V69.8757H36.8666V67.4826H41.6046ZM33.1834 63.6632H37.9214V66.0563H33.1834V63.6632ZM34.9793 67.4826V69.8757H30.2413V67.4826H34.9793ZM26.7014 63.6632H31.4394V66.0563H26.7014V63.6632ZM28.4997 67.4826V69.8757H23.7617V67.4826H28.4997ZM20.0761 63.6632H24.8141V66.0563H20.0761V63.6632ZM17.1339 67.4826H21.8744V69.8757H17.1339V67.4826ZM18.0554 73.4929H13.3173V71.0973H18.0554V73.4929ZM24.11 73.4929H19.372V71.0973H24.11V73.4929ZM30.7354 73.4929H25.9973V71.0973H30.7354V73.4929ZM37.2174 73.4929H32.4769V71.0973H37.2149L37.2174 73.4929ZM43.8402 73.4929H39.1022V71.0973H43.8402V73.4929ZM63.3012 73.4929H45.8708V71.0973H63.3012V73.4929ZM63.3629 67.4826H68.101V69.8757H63.3629V67.4826ZM70.339 73.4929H65.601V71.0973H70.339V73.4929ZM77.1249 73.4929H72.3869V71.0973H77.1249V73.4929ZM83.7478 73.4929H79.0098V71.0973H83.7478V73.4929ZM90.2323 73.4929H85.4943V71.0973H90.2323V73.4929ZM96.2153 73.4929H91.4773V71.0973H96.2153V73.4929Z" fill="white"/>
</svg>
