<svg width="60" height="100" viewBox="0 0 60 100" fill="none" xmlns="http://www.w3.org/2000/svg">
<path d="M53.0238 0H6.97619C3.13988 0 0 3.03714 0 6.75429V93.2429C0 96.96 3.13988 100 6.97619 100H53.0238C56.8601 100 60 96.9657 60 93.2457V6.75429C60 3.03714 56.8601 0 53.0238 0ZM22.6343 4.86857H37.3657C37.832 4.86857 38.2097 5.23429 38.2097 5.68857C38.2097 6.14 37.832 6.50571 37.3657 6.50571H22.6343C22.168 6.50571 21.7903 6.14 21.7903 5.68857C21.7903 5.23429 22.168 4.86857 22.6343 4.86857ZM30 96.6229C28.073 96.6229 26.5119 95.1114 26.5119 93.2429C26.5119 91.3743 28.073 89.8657 30 89.8657C31.927 89.8657 33.4881 91.3743 33.4881 93.2429C33.4881 95.1114 31.927 96.6229 30 96.6229ZM55.1456 87.5H4.85442V10.7114H55.1456V87.5Z" fill="white"/>
</svg>
